<svg width="64" height="64" viewBox="0 0 64 64" fill="none" xmlns="http://www.w3.org/2000/svg">
<path d="M14.1045 14.0726C17.4854 14.7095 26.022 16.2 32 16.2C37.9769 16.2 46.5117 14.71 49.8938 14.0729C49.895 14.0727 49.8959 14.0725 49.8967 14.0724C49.8975 14.0723 49.898 14.0723 49.8984 14.0723L49.8997 14.0723L49.9006 14.0725C49.9025 14.0731 49.9081 14.0756 49.9145 14.082C49.9209 14.0884 49.9236 14.0943 49.9243 14.0966L49.9247 14.0983C49.9247 14.0984 49.9249 14.1003 49.924 14.1048C49.2847 17.4643 47.8 25.9077 47.8 32C47.8 38.1567 49.3163 46.7152 49.9443 50.0018C49.9452 50.0062 49.945 50.0082 49.945 50.0084L49.9448 50.0095C49.9445 50.0107 49.9429 50.0144 49.9389 50.0187C49.9348 50.023 49.9315 50.0246 49.9308 50.0248C49.9307 50.0249 49.9307 50.0248 49.9307 50.0249L49.9294 50.0249C49.9286 50.0249 49.9271 50.0248 49.9248 50.0246C46.6164 49.6049 38.0701 48.6 32 48.6C25.929 48.6 17.3809 49.6052 14.0736 50.0248C14.0714 50.025 14.0698 50.0251 14.069 50.0251L14.0677 50.025L14.0676 50.025C14.0676 50.025 14.0676 50.025 14.0675 50.025C14.0669 50.0248 14.0636 50.0232 14.0596 50.019C14.0557 50.0148 14.0542 50.0112 14.0538 50.0101L14.0537 50.0092C14.0536 50.009 14.0535 50.007 14.0544 50.0026C14.6814 46.7091 16.2 38.1157 16.2 32C16.2 25.9479 14.7128 17.47 14.0745 14.1036C14.0737 14.0991 14.0738 14.0972 14.0738 14.0971L14.0742 14.0957C14.0749 14.0935 14.0775 14.0878 14.0837 14.0816C14.09 14.0753 14.0955 14.0728 14.0974 14.0722L14.0984 14.0719L14.0998 14.0719C14.1006 14.072 14.1021 14.0721 14.1045 14.0726Z" stroke="black" stroke-width="2"/>
<path d="M56.0001 12.9199L55.999 8.11989L51.2 8.11995" stroke="black" stroke-width="2"/>
<path d="M12.8298 8.02989L8.05909 8.02997L8.02969 12.7805" stroke="black" stroke-width="2"/>
<path d="M8.07247 49.6001L8.0724 55.1998L13.6725 55.1998" stroke="black" stroke-width="2"/>
<path d="M49.6001 56.0406L55.2278 56.0916L55.2279 50.4" stroke="black" stroke-width="2"/>
</svg>
