<svg width="62" height="54" viewBox="0 0 62 54" fill="none" xmlns="http://www.w3.org/2000/svg">
<path d="M0.048 52.008C1.344 52.632 2.76 53.04 4.176 53.04C6.816 53.04 9.336 51.528 9.336 48.12C9.336 45.696 7.632 44.568 5.448 43.368C3.648 42.336 2.688 41.712 2.688 40.488C2.688 38.808 3.768 37.992 4.968 37.992C6.312 37.992 7.32 38.352 8.472 38.904L9 36.792C7.728 36.168 6.456 35.76 4.968 35.76C2.4 35.76 0 37.32 0 40.56C0 42.792 1.752 44.112 3.84 45.264C5.76 46.32 6.648 46.824 6.648 48.216C6.648 50.04 5.448 50.832 4.176 50.832C2.784 50.832 1.728 50.472 0.552 49.944L0.048 52.008Z" fill="#3C64B1"/>
<path d="M21.7816 38.16V36H11.1736V38.16H15.2776V52.8H17.8456V38.16H21.7816Z" fill="#3C64B1"/>
<path d="M35.9386 36H33.3706V47.28C33.3706 49.872 31.8346 50.904 29.9626 50.904C28.1146 50.904 26.6266 49.872 26.6266 47.28V36H24.0586V47.28C24.0586 51.048 26.6266 53.04 29.9626 53.04C33.3226 53.04 35.9386 51.048 35.9386 47.28V36Z" fill="#3C64B1"/>
<path d="M48.2786 45.288V43.152H42.2066V38.16H48.6146V36H39.6386V52.8H42.2066V45.288H48.2786Z" fill="#3C64B1"/>
<path d="M60.1036 45.288V43.152H54.0316V38.16H60.4396V36H51.4636V52.8H54.0316V45.288H60.1036Z" fill="#3C64B1"/>
<path d="M34.1169 28.328V26.36H31.1409V22.88H28.9089V26.36H25.9089V28.328H28.9089V31.808H31.1409V28.328H34.1169Z" fill="#3C64B1"/>
<path d="M11.1747 9.288V7.152H5.10272V2.16H11.5107V0H2.53472V16.8H5.10272V9.288H11.1747Z" fill="#3C64B1"/>
<path d="M14.3597 16.8H22.8797V14.664H16.9277V0H14.3597V16.8Z" fill="#3C64B1"/>
<path d="M37.0518 0H34.4838V11.28C34.4838 13.872 32.9478 14.904 31.0758 14.904C29.2278 14.904 27.7398 13.872 27.7398 11.28V0H25.1718V11.28C25.1718 15.048 27.7398 17.04 31.0758 17.04C34.4358 17.04 37.0518 15.048 37.0518 11.28V0Z" fill="#3C64B1"/>
<path d="M49.3919 9.288V7.152H43.3199V2.16H49.7279V0H40.7519V16.8H43.3199V9.288H49.3919Z" fill="#3C64B1"/>
<path d="M61.2169 9.288V7.152H55.1449V2.16H61.5529V0H52.5769V16.8H55.1449V9.288H61.2169Z" fill="#3C64B1"/>
</svg>
