<svg width="48" height="57" viewBox="0 0 48 57" fill="none" xmlns="http://www.w3.org/2000/svg">
<path d="M9.15881 8.366V6.764H4.60481V3.02H9.41081V1.4H2.67881V14H4.60481V8.366H9.15881ZM11.5976 14H17.9876V12.398H13.5236V1.4H11.5976V14ZM28.6666 1.4H26.7406V9.86C26.7406 11.804 25.5886 12.578 24.1846 12.578C22.7986 12.578 21.6826 11.804 21.6826 9.86V1.4H19.7566V9.86C19.7566 12.686 21.6826 14.18 24.1846 14.18C26.7046 14.18 28.6666 12.686 28.6666 9.86V1.4ZM37.9717 8.366V6.764H33.4177V3.02H38.2237V1.4H31.4917V14H33.4177V8.366H37.9717ZM46.8904 8.366V6.764H42.3364V3.02H47.1424V1.4H40.4104V14H42.3364V8.366H46.8904Z" fill="white"/>
<path d="M27.0904 27.626V26.15H24.8584V23.54H23.1844V26.15H20.9344V27.626H23.1844V30.236H24.8584V27.626H27.0904Z" fill="white"/>
<path d="M1.43877 52.406C2.41077 52.874 3.47277 53.18 4.53477 53.18C6.51477 53.18 8.40477 52.046 8.40477 49.49C8.40477 47.672 7.12677 46.826 5.48877 45.926C4.13877 45.152 3.41877 44.684 3.41877 43.766C3.41877 42.506 4.22877 41.894 5.12877 41.894C6.13677 41.894 6.89277 42.164 7.75677 42.578L8.15277 40.994C7.19877 40.526 6.24477 40.22 5.12877 40.22C3.20277 40.22 1.40277 41.39 1.40277 43.82C1.40277 45.494 2.71677 46.484 4.28277 47.348C5.72277 48.14 6.38877 48.518 6.38877 49.562C6.38877 50.93 5.48877 51.524 4.53477 51.524C3.49077 51.524 2.69877 51.254 1.81677 50.858L1.43877 52.406ZM17.789 42.02V40.4H9.83298V42.02H12.911V53H14.837V42.02H17.789ZM28.4567 40.4H26.5307V48.86C26.5307 50.804 25.3787 51.578 23.9747 51.578C22.5887 51.578 21.4727 50.804 21.4727 48.86V40.4H19.5467V48.86C19.5467 51.686 21.4727 53.18 23.9747 53.18C26.4947 53.18 28.4567 51.686 28.4567 48.86V40.4ZM37.7617 47.366V45.764H33.2077V42.02H38.0137V40.4H31.2817V53H33.2077V47.366H37.7617ZM46.6805 47.366V45.764H42.1265V42.02H46.9325V40.4H40.2005V53H42.1265V47.366H46.6805Z" fill="white"/>
</svg>
